# xmcd
#
# Track frame offsets: 
#        150
#        22040
#        36750
#        49353
#        66037
#        77112
#        91178
#        106194
#        119643
#        134421
#        145572
#        161157
#        174217
#        186318
#        202955
#
# Disc length: 2882 seconds
#
# Revision: 5
# Processed by: cddbd v1.5.2PL0 Copyright (c) Steve Scherf et al.
# Submitted via: ExactAudioCopy v0.99pb5
#
DISCID=cd0b400f
DTITLE=Various Artist - Classic Country - TL 626-24 - 1983 - 1985 - CD 2
DYEAR=2001
DGENRE=Country
TTITLE0=Willie Nelson - City of New Orleans
TTITLE1=Judds - Mama, he's crazy
TTITLE2=Joe Stampley - Double shot (of my baby's love)
TTITLE3=David Allan Coe - Mona Lisa lost her smile
TTITLE4=Johnny Lee and Lane Brody - The yellow rose
TTITLE5=Ronnie McDowell - You're gonna ruin my bad reputation
TTITLE6=Rosanne Cash - I don't know why you don't want me
TTITLE7=Mel McDaniel - Baby's got her blue jeans on
TTITLE8=Lee Greenwood - Dixie road
TTITLE9=Eddy Raven - I got Mexico
TTITLE10=Statler Brothers - Elizabeth
TTITLE11=Larry Gatlin and The Gatlin Brothers Band - The lady takes the 
TTITLE11=cowboy every time
TTITLE12=John Schneider - I've been around enough to know
TTITLE13=Exile - I don't want to be a memory
TTITLE14=Kendalls - Thank God for the radio
EXTD=
EXTT0=
EXTT1=
EXTT2=
EXTT3=
EXTT4=
EXTT5=
EXTT6=
EXTT7=
EXTT8=
EXTT9=
EXTT10=
EXTT11=
EXTT12=
EXTT13=
EXTT14=
PLAYORDER=
